<?xml version="1.0"?>
<svg xmlns="http://www.w3.org/2000/svg" xmlns:xlink="http://www.w3.org/1999/xlink" xmlns:svgjs="http://svgjs.com/svgjs" version="1.1" width="512" height="512" x="0" y="0" viewBox="0 0 128 128" style="enable-background:new 0 0 512 512" xml:space="preserve" class=""><g><path xmlns="http://www.w3.org/2000/svg" d="m64 17.2c-25.7 0-46.7 21-46.7 46.8 0 27.8 22.5 46.7 46.7 46.7 25.7 0 46.8-20.7 46.8-46.7-.1-26-21.2-46.7-46.8-46.8zm-27 80.5c2.6-14.9 16.8-24.9 31.7-22.3 11.3 2 20.4 10.8 22.3 22.3-16.2 13-39.1 12.3-54 0zm9.6-43.5c0-9.6 7.8-17.4 17.4-17.3 9.6 0 17.4 7.7 17.4 17.3 0 12.2-12.2 20.6-23.7 16.2-6.6-2.6-11.1-9.1-11.1-16.2zm47.4 40.9c-2.6-10.6-10.5-19-20.9-22.2 4.8-2.3 8.5-6.4 10.4-11.3 5.2-13.7-5-28.3-19.6-28.3-11.4 0-20.8 9.2-20.8 20.7 0 8 4.6 15.4 11.8 18.9-10.4 3.2-18.3 11.6-20.9 22.2-8.7-8.4-13.2-19.5-13.2-31.1 0-23.8 19.2-43.2 43.2-43.2 23.9 0 43.2 19.4 43.2 43.2.1 11.6-4.6 22.9-13.2 31.1z" fill="#ffffff" data-original="#000000" style="" class=""/></g></svg>
